<?xml version="1.0" standalone="no"?>
<!DOCTYPE svg PUBLIC "-//W3C//DTD SVG 20010904//EN"
 "http://www.w3.org/TR/2001/REC-SVG-20010904/DTD/svg10.dtd">
<svg version="1.0" xmlns="http://www.w3.org/2000/svg"
 width="1536.000000pt" height="1024.000000pt" viewBox="0 0 1536.000000 1024.000000"
 preserveAspectRatio="xMidYMid meet">

<g transform="translate(0.000000,1024.000000) scale(0.100000,-0.100000)"
fill="#000000" stroke="none">
<path d="M6853 6331 c-76 -12 -209 -58 -273 -94 -74 -41 -197 -167 -237 -243
-63 -119 -77 -183 -78 -344 0 -165 10 -211 78 -349 79 -163 240 -291 434 -343
110 -29 325 -29 434 0 95 26 218 87 284 142 238 199 305 574 155 870 -86 171
-227 285 -421 340 -83 24 -286 35 -376 21z m212 -196 c143 -38 237 -143 307
-344 27 -80 34 -218 15 -316 -38 -200 -141 -313 -315 -345 -135 -24 -263 31
-355 153 -75 99 -111 202 -122 343 -21 270 82 454 285 510 62 17 115 17 185
-1z"/>
<path d="M5046 6313 l-208 -3 6 -38 c3 -20 8 -271 11 -557 3 -286 7 -572 8
-635 l2 -115 305 1 c276 0 315 3 409 23 139 30 244 71 328 130 172 121 249
271 260 507 10 206 -43 351 -176 484 -176 175 -350 212 -945 203z m465 -199
c217 -49 344 -264 326 -549 -20 -293 -179 -415 -544 -415 l-113 0 0 148 c0 81
-3 301 -7 490 l-6 342 137 0 c89 0 161 -6 207 -16z"/>
<path d="M8031 6313 l-173 -3 6 -28 c5 -21 22 -877 25 -1254 l1 -68 157 0 156
0 -5 586 -6 586 132 -4 c145 -5 196 -21 249 -74 49 -49 62 -82 62 -164 0 -107
-27 -153 -115 -198 -59 -30 -74 -33 -157 -33 l-92 -1 20 -52 c28 -73 111 -233
174 -336 126 -208 227 -295 376 -326 67 -14 80 -14 144 1 44 10 122 17 210 18
l140 2 41 115 c60 166 60 166 109 190 53 26 227 37 405 26 l116 -8 64 -164 65
-164 178 0 c102 0 177 4 177 9 0 5 -30 81 -66 168 -36 87 -104 253 -151 368
-123 305 -204 501 -270 660 l-58 140 -191 3 -190 2 -56 -157 c-31 -87 -72
-201 -92 -253 -20 -52 -96 -257 -170 -455 -74 -198 -142 -377 -151 -398 l-16
-38 -27 20 c-79 56 -241 257 -365 452 -36 57 -38 69 -7 69 38 0 141 63 189
116 69 75 94 144 95 259 1 108 -18 158 -91 236 -56 60 -117 93 -219 119 -85
22 -276 41 -379 38 -38 -2 -148 -4 -244 -5z m1800 -551 c58 -147 105 -268 104
-270 -3 -4 -407 -3 -412 1 -2 2 2 17 8 33 6 16 44 124 84 239 100 285 97 277
104 270 3 -4 54 -127 112 -273z"/>
<path d="M8290 4630 c0 -55 -10 -75 -25 -50 -13 21 -74 11 -105 -17 -53 -47
-54 -136 -4 -186 30 -31 62 -34 104 -12 27 14 30 14 30 0 0 -8 9 -15 20 -15
19 0 20 7 20 170 0 163 -1 170 -20 170 -18 0 -20 -7 -20 -60z m-22 -90 c17
-17 22 -32 22 -75 0 -48 -3 -57 -26 -71 -54 -36 -109 15 -100 91 8 67 61 95
104 55z"/>
<path d="M9775 4648 c-3 -24 -5 -99 -3 -168 3 -113 5 -125 21 -125 16 0 18 11
19 115 1 196 0 220 -16 220 -10 0 -17 -15 -21 -42z"/>
<path d="M7040 4660 c0 -13 7 -20 20 -20 13 0 20 7 20 20 0 13 -7 20 -20 20
-13 0 -20 -7 -20 -20z"/>
<path d="M9147 4673 c-14 -13 -7 -33 11 -33 24 0 32 8 25 26 -5 15 -25 19 -36
7z"/>
<path d="M5270 4509 l0 -162 78 5 c131 8 182 52 182 161 0 112 -53 156 -187
157 l-73 0 0 -161z m155 117 c74 -31 89 -152 26 -208 -28 -25 -39 -29 -84 -26
l-52 3 -3 109 c-1 61 0 116 2 123 7 17 68 17 111 -1z"/>
<path d="M6000 4510 l0 -161 23 3 c21 3 22 7 19 66 l-4 62 40 0 c37 0 40 -3
77 -65 25 -43 44 -65 56 -65 26 0 24 6 -16 73 -19 32 -35 60 -35 63 0 4 14 19
30 34 38 35 40 78 6 117 -23 26 -31 28 -110 32 l-86 3 0 -162z m160 110 c24
-24 25 -48 4 -78 -12 -18 -25 -22 -63 -22 l-48 0 -7 50 c-4 28 -4 55 -1 60 12
19 94 11 115 -10z"/>
<path d="M7857 4517 c-31 -85 -57 -157 -57 -160 0 -4 8 -7 19 -7 13 0 22 12
31 45 l13 46 75 -3 75 -3 15 -42 c10 -31 19 -43 33 -43 10 0 19 4 19 9 0 11
-97 268 -111 294 -5 9 -20 17 -32 17 -20 0 -29 -18 -80 -153z m110 46 c12 -32
25 -66 29 -75 5 -16 -1 -18 -55 -18 -34 0 -61 2 -61 4 0 14 53 146 59 146 3 0
16 -26 28 -57z"/>
<path d="M6868 4613 c-2 -20 -9 -29 -25 -31 -28 -4 -30 -22 -3 -29 18 -5 20
-14 20 -80 0 -66 3 -77 25 -99 30 -30 78 -30 83 0 3 13 0 17 -11 13 -8 -3 -24
1 -36 9 -18 13 -21 25 -21 85 l0 69 35 0 c27 0 35 4 35 18 0 13 -8 17 -32 17
-29 0 -33 4 -36 28 -2 15 -9 27 -17 27 -8 0 -15 -12 -17 -27z"/>
<path d="M8971 4610 c-5 -16 -17 -30 -25 -30 -9 0 -16 -7 -16 -15 0 -8 9 -15
20 -15 18 0 20 -7 20 -80 0 -97 17 -123 78 -118 45 4 45 18 0 32 l-33 11 -3
78 -3 77 36 0 c46 0 49 27 3 32 -28 2 -34 8 -36 31 -4 36 -27 35 -41 -3z"/>
<path d="M5649 4575 c-34 -18 -62 -86 -53 -129 9 -49 43 -86 86 -93 77 -12
128 35 128 117 0 55 -23 95 -61 109 -42 14 -68 13 -100 -4z m91 -25 c11 -6 24
-28 31 -49 14 -47 -2 -87 -43 -110 -25 -14 -29 -14 -55 5 -33 25 -44 63 -32
109 14 50 55 68 99 45z"/>
<path d="M6338 4579 c-50 -19 -74 -110 -43 -169 21 -40 53 -60 98 -60 31 0 46
7 74 35 34 34 35 38 31 91 -4 42 -11 61 -30 80 -28 29 -88 39 -130 23z m97
-44 c19 -18 25 -35 25 -65 0 -45 -34 -90 -68 -90 -61 0 -94 99 -52 153 27 34
63 35 95 2z"/>
<path d="M6570 4489 c0 -86 3 -102 20 -119 24 -24 78 -26 106 -5 25 19 34 19
34 -1 0 -9 7 -14 18 -12 15 3 17 17 17 117 0 101 -2 114 -17 117 -16 2 -18 -7
-18 -76 0 -86 -14 -114 -60 -125 -45 -10 -55 6 -60 106 -4 78 -8 93 -22 95
-16 2 -18 -8 -18 -97z"/>
<path d="M7036 4495 c-7 -109 -1 -147 23 -143 13 3 16 22 19 121 2 109 1 117
-16 117 -17 0 -20 -11 -26 -95z"/>
<path d="M7160 4468 c0 -111 1 -118 20 -118 18 0 20 7 20 84 0 79 2 86 26 105
62 49 94 13 94 -106 0 -76 2 -83 20 -83 18 0 20 7 20 88 0 105 -12 134 -62
146 -29 7 -42 6 -62 -7 -31 -20 -46 -22 -46 -4 0 8 -7 14 -15 14 -12 0 -15
-20 -15 -119z"/>
<path d="M7481 4576 c-34 -19 -50 -54 -51 -108 0 -38 6 -54 28 -78 31 -35 89
-49 135 -31 44 17 31 29 -29 27 -47 -1 -59 3 -75 23 -36 44 -27 51 62 51 l82
0 -6 42 c-10 74 -81 110 -146 74z m93 -32 c9 -8 16 -24 16 -35 0 -17 -7 -19
-60 -19 -65 0 -72 8 -44 48 18 26 65 30 88 6z"/>
<path d="M8448 4583 c-19 -3 -28 -10 -28 -23 0 -17 4 -18 26 -10 56 21 104 2
104 -41 0 -16 -7 -19 -46 -19 -71 0 -104 -23 -104 -72 0 -58 68 -87 119 -52
19 14 25 14 31 4 5 -8 16 -15 24 -16 25 -4 23 175 -2 206 -18 22 -71 32 -124
23z m100 -140 c4 -30 -33 -65 -65 -61 -54 6 -56 64 -2 79 40 12 64 6 67 -18z"/>
<path d="M8670 4425 c0 -158 1 -165 20 -165 18 0 20 7 20 60 0 64 3 68 34 45
73 -55 163 43 135 147 -17 65 -88 99 -135 63 -25 -19 -34 -19 -34 0 0 8 -9 15
-20 15 -19 0 -20 -7 -20 -165z m150 115 c28 -28 28 -108 0 -138 -26 -28 -50
-28 -85 0 -25 19 -27 26 -22 71 7 78 62 112 107 67z"/>
<path d="M9147 4583 c-4 -3 -7 -57 -7 -120 0 -106 1 -113 20 -113 19 0 20 7
20 120 0 93 -3 120 -13 120 -8 0 -17 -3 -20 -7z"/>
<path d="M9390 4499 c-18 -49 -35 -89 -39 -89 -3 0 -19 37 -36 81 -28 77 -42
96 -63 87 -5 -1 10 -52 33 -113 56 -145 70 -149 115 -33 18 46 38 97 45 115
12 28 11 32 -5 36 -15 4 -24 -10 -50 -84z"/>
<path d="M9548 4583 c-16 -2 -28 -11 -28 -18 0 -11 10 -13 44 -9 53 8 86 -8
86 -40 0 -21 -6 -24 -56 -29 -65 -7 -94 -28 -94 -69 0 -57 63 -85 120 -53 32
18 40 18 40 0 0 -8 7 -15 15 -15 24 0 21 180 -3 210 -18 22 -71 32 -124 23z
m100 -145 c-4 -40 -41 -64 -82 -54 -23 6 -27 11 -24 38 3 34 22 45 81 47 26 1
28 -2 25 -31z"/>
<path d="M9891 4581 c-11 -7 -8 -23 19 -87 17 -44 39 -93 47 -111 14 -30 13
-34 -7 -63 -14 -19 -30 -30 -46 -30 -15 0 -24 -6 -24 -15 0 -20 49 -20 77 0
19 13 69 125 119 268 12 34 12 37 -5 37 -14 0 -25 -19 -46 -77 -15 -43 -30
-82 -34 -86 -5 -4 -23 29 -41 75 -37 96 -40 100 -59 89z"/>
<path d="M4848 4503 c45 -2 119 -2 165 0 45 1 8 3 -83 3 -91 0 -128 -2 -82 -3z"/>
<path d="M10313 4503 c37 -2 96 -2 130 0 34 2 4 3 -68 3 -71 0 -99 -1 -62 -3z"/>
</g>
</svg>
